<?xml version="1.0" encoding="UTF-8"?><svg id="a" xmlns="http://www.w3.org/2000/svg" viewBox="0 0 461.55 105.99"><defs><style>.b{fill:#fff;}.c{fill:#199dcf;}</style></defs><g><polygon class="c" points=".09 50.96 66.86 12.12 45.88 0 45.88 .04 22.94 13.3 22.93 13.3 22.93 13.3 .09 26.49 .09 26.49 .09 26.49 0 26.54 .09 26.59 .09 50.96"/><polygon class="c" points="4.21 53.19 22.94 64.08 22.94 42.29 4.21 53.19"/><polygon class="c" points="43.75 80.79 .23 55.51 .09 55.59 .09 79.43 0 79.48 .09 79.54 .09 105.99 22.8 92.88 22.8 92.88 43.75 80.79"/><polygon class="c" points="64.22 36.96 66.79 38.45 89.61 25.17 70.92 14.38 48.03 27.7 64.18 37.02 64.22 36.96"/><g><polygon class="c" points="76.33 44 91.66 52.92 91.66 52.82 91.63 52.83 76.33 44"/><polygon class="c" points="68.71 44.2 68.71 92.51 91.66 105.76 91.66 57.55 68.71 44.2"/></g><polygon class="c" points="70.77 40.76 76.28 43.97 91.66 52.85 91.66 28.61 70.77 40.76"/></g><path class="b" d="M149.92,29.66h12.38l19.72,46.67h-13.77l-3.38-8.27h-17.87l-3.31,8.27h-13.5l19.72-46.67Zm11.25,28.4l-5.16-13.17-5.23,13.17h10.39Z"/><path class="b" d="M186.53,29.99h12.84v35.08h22.44v11.25h-35.28V29.99Z"/><path class="b" d="M230,41.25h-13.9v-11.25h40.64v11.25h-13.9v35.08h-12.84V41.25Z"/><path class="b" d="M262.63,29.99h12.91v46.33h-12.91V29.99Z"/><path class="b" d="M284.01,29.99h11.98l19.06,24.49V29.99h12.71v46.33h-11.25l-19.79-25.42v25.42h-12.71V29.99Z"/><path class="b" d="M336.24,29.99h12.91v46.33h-12.91V29.99Z"/><path class="b" d="M368.94,41.25h-13.9v-11.25h40.64v11.25h-13.9v35.08h-12.84V41.25Z"/><path class="b" d="M416.68,58.98l-17.61-28.99h14.63l9.53,16.88,9.6-16.88h14.36l-17.61,28.79v17.54h-12.91v-17.34Z"/><g><path class="b" d="M457.99,34.89c.29-.09,.54-.24,.73-.44,.25-.25,.37-.58,.37-1,0-.47-.18-.85-.53-1.12-.34-.26-.79-.4-1.33-.4h-2.06c-.07,0-.12,.06-.12,.12v4.61c0,.07,.06,.12,.12,.12h.68c.07,0,.12-.06,.12-.12v-1.62h.99l1.29,1.69s.06,.05,.1,.05h.84s.09-.03,.11-.07c.02-.04,.02-.09-.01-.13l-1.32-1.71Zm.15-1.4c0,.23-.08,.39-.25,.51-.18,.13-.42,.19-.72,.19h-1.19v-1.39h1.23c.3,0,.54,.06,.7,.19,.15,.12,.23,.28,.23,.5Z"/><path class="b" d="M461.2,32.69c-.24-.56-.57-1.05-.98-1.47-.41-.42-.9-.75-1.46-.99-.56-.24-1.17-.36-1.82-.36s-1.26,.12-1.82,.37c-.56,.25-1.06,.58-1.48,1-.42,.42-.75,.92-.98,1.47-.24,.56-.36,1.16-.36,1.79s.12,1.23,.36,1.79c.24,.56,.56,1.05,.98,1.47,.41,.42,.9,.75,1.46,.99,.56,.24,1.17,.36,1.81,.36s1.26-.12,1.82-.37c.56-.25,1.06-.58,1.47-1,.42-.42,.75-.92,.98-1.47,.24-.56,.36-1.16,.36-1.79s-.12-1.23-.36-1.79Zm-.3,1.79c0,.54-.1,1.06-.3,1.55-.2,.49-.48,.91-.84,1.27-.35,.36-.78,.65-1.27,.86-.49,.21-1.02,.32-1.57,.32s-1.09-.11-1.56-.31c-.48-.21-.9-.5-1.25-.86-.35-.36-.63-.78-.83-1.27-.2-.48-.3-1-.3-1.54s.1-1.06,.3-1.55c.2-.48,.48-.91,.84-1.27,.36-.36,.78-.65,1.26-.86,.48-.21,1.01-.32,1.58-.32s1.09,.11,1.57,.31c.48,.21,.9,.5,1.25,.86,.35,.36,.63,.78,.83,1.27,.2,.48,.3,1,.3,1.54Z"/></g></svg>