<?xml version="1.0" encoding="UTF-8"?><svg
        id="a"
        viewBox="0 0 91.660006 105.99"
        version="1.1"
        xmlns="http://www.w3.org/2000/svg"
        xmlns:svg="http://www.w3.org/2000/svg">
    <defs
            id="defs1">
        <style
                id="style1">.b{fill:#fff;}.c{fill:#199dcf;}</style>
    </defs>
    <g
            id="g7">
        <polygon
                class="c"
                points="45.88,0 45.88,0.04 22.94,13.3 22.93,13.3 22.93,13.3 0.09,26.49 0.09,26.49 0.09,26.49 0,26.54 0.09,26.59 0.09,50.96 66.86,12.12 "
                id="polygon1" />
        <polygon
                class="c"
                points="22.94,42.29 4.21,53.19 22.94,64.08 "
                id="polygon2" />
        <polygon
                class="c"
                points="0.09,55.59 0.09,79.43 0,79.48 0.09,79.54 0.09,105.99 22.8,92.88 22.8,92.88 43.75,80.79 0.23,55.51 "
                id="polygon3" />
        <polygon
                class="c"
                points="89.61,25.17 70.92,14.38 48.03,27.7 64.18,37.02 64.22,36.96 66.79,38.45 "
                id="polygon4" />
        <g
                id="g6">
            <polygon
                    class="c"
                    points="91.66,52.82 91.63,52.83 76.33,44 91.66,52.92 "
                    id="polygon5" />
            <polygon
                    class="c"
                    points="91.66,105.76 91.66,57.55 68.71,44.2 68.71,92.51 "
                    id="polygon6" />
        </g>
        <polygon
                class="c"
                points="91.66,52.85 91.66,28.61 70.77,40.76 76.28,43.97 "
                id="polygon7" />
    </g>
</svg>
