<svg xmlns="http://www.w3.org/2000/svg" xmlns:xlink="http://www.w3.org/1999/xlink" viewBox="0 0 97.68 112.95"><defs><linearGradient id="linear-gradient" x1="49.43" y1="564.05" x2="21.19" y2="486.25" gradientTransform="matrix(1, 0, 0, -1, 0, 550.11)" gradientUnits="userSpaceOnUse"><stop offset="0" stop-color="#009cd0"/><stop offset="0.16" stop-color="#02a0d4"/><stop offset="0.33" stop-color="#08acdf"/><stop offset="0.49" stop-color="#12c0f1"/><stop offset="0.66" stop-color="#10bced"/><stop offset="0.83" stop-color="#0ab0e2"/><stop offset="1" stop-color="#009cd0"/></linearGradient><linearGradient id="linear-gradient-2" x1="0" y1="472.36" x2="48.75" y2="472.36" xlink:href="#linear-gradient"/><linearGradient id="linear-gradient-3" x1="0.05" y1="493.62" x2="24.5" y2="493.62" gradientTransform="matrix(1, 0, 0, -1, 0, 550.11)" gradientUnits="userSpaceOnUse"><stop offset="0" stop-color="#fff"/><stop offset="0.03" stop-color="#f2f7fb"/><stop offset="0.19" stop-color="#b3d2e7"/><stop offset="0.34" stop-color="#7cb2d5"/><stop offset="0.5" stop-color="#5097c7"/><stop offset="0.64" stop-color="#2d83bc"/><stop offset="0.78" stop-color="#1474b4"/><stop offset="0.9" stop-color="#056bb0"/><stop offset="1" stop-color="#0068ae"/></linearGradient><linearGradient id="linear-gradient-4" x1="73.23" y1="507.9" x2="97.68" y2="507.9" gradientTransform="matrix(1, 0, 0, -1, 0, 550.11)" gradientUnits="userSpaceOnUse"><stop offset="0" stop-color="#0068ae"/><stop offset="0.12" stop-color="#046aaf"/><stop offset="0.25" stop-color="#1072b3"/><stop offset="0.38" stop-color="#257eba"/><stop offset="0.5" stop-color="#418fc3"/><stop offset="0.63" stop-color="#66a4ce"/><stop offset="0.76" stop-color="#93bfdd"/><stop offset="0.88" stop-color="#c7deed"/><stop offset="1" stop-color="#fff"/></linearGradient><linearGradient id="linear-gradient-5" x1="50.7" y1="522" x2="74.92" y2="522" gradientTransform="matrix(1, 0, 0, -1, 0, 550.11)" gradientUnits="userSpaceOnUse"><stop offset="0" stop-color="#0068ae"/><stop offset="0.09" stop-color="#096eb1"/><stop offset="0.23" stop-color="#237db9"/><stop offset="0.41" stop-color="#4d95c6"/><stop offset="0.62" stop-color="#86b8d9"/><stop offset="0.86" stop-color="#cfe3f0"/><stop offset="1" stop-color="#fff"/></linearGradient></defs><title>logo_1</title><g style="isolation:isolate"><g id="Layer_2" data-name="Layer 2"><g id="Layer_1-2" data-name="Layer 1"><path d="M97.68,56.29h0L73.23,42.21V98.58L97.68,112.7V56.29Z" style="fill:#009cd0"/><path d="M73.23,42.21,97.68,56.32V28.09Z" style="fill:#009cd0"/><path d="M73.25,42.2,97.68,28.09,73.25,14h0L48.79,28.08,73.23,42.19v0h0Z" style="fill:#009cd0"/><path d="M73.34,14.12,48.89,0V0L24.45,14.18h0L.1,28.23h0L0,28.29l.09.05V56.46L24.45,42.4h0l.1,0h0L49.4,27.94,73.34,14.12Z" style="fill:url(#linear-gradient)"/><path d="M48.75,84.87,24.45,70.52v-28L.21,56.53l-.12-.07v.14L0,56.66l.09.05V84.65L0,84.7l.09.06V113L24.3,99v0L48.75,84.87Z" style="fill:url(#linear-gradient-2)"/><path d="M.05,56.44,24.5,70.55V42.32Z" style="fill:#009cd0"/><path d="M.05,56.49,24.5,70.6V42.37Z" style="mix-blend-mode:multiply;fill:url(#linear-gradient-3)"/><path d="M73.23,42.21,97.68,56.32V28.09Z" style="mix-blend-mode:multiply;fill:url(#linear-gradient-4)"/><path d="M97.68,28.09,73.23,14V14L48.79,28.13,73.25,42.25v0Z" style="mix-blend-mode:multiply;fill:url(#linear-gradient-5)"/></g></g></g></svg>